<?xml version="1.0" encoding="utf-8" ?>
      <svg xmlns="http://www.w3.org/2000/svg" xmlns:xlink="http://www.w3.org/1999/xlink" width="260" height="16">
        <defs>
          <style>
            <![CDATA[
              .bar { display: none; }
              .bar:target { display: inline; }
            ]]>
          </style>
        </defs>
        <g class="bar" id="cold-start_wasm">
    <clipPath id="cl_3">
		<rect x="10" width="16.166666" height="16"/>
	</clipPath>
	<g clip-path="url(#cl_3)">
		<path fill="#59A14F" d="M10 4L25.831417 4L25.831417 20L10 20L10 4Z"/>
	</g>
</g>
<g class="bar" id="cold-start_canvas">
    <clipPath id="cl_4">
		<path d="M10 16L26.166666 16L26.166666 0L10 0L10 16ZM26.666666 0L26.666666 16L42.833332 16L42.833332 0L26.666666 0ZM43.333332 0L43.333332 16L59.5 16L59.5 0L43.333332 0ZM60 0L60 16L76.166664 16L76.166664 0L60 0ZM76.666664 0L76.666664 16L92.833328 16L92.833328 0L76.666664 0ZM93.333336 0L93.333336 16L109.5 16L109.5 0L93.333336 0ZM110 0L110 16L126.16666 16L126.16666 0L110 0ZM126.66666 0L126.66666 16L142.83333 16L142.83333 0L126.66666 0ZM143.33333 0L143.33333 16L159.5 16L159.5 0L143.33333 0ZM160 0L160 16L176.16667 16L176.16667 0L160 0Z" clip-rule="evenodd"/>
	</clipPath>
	<g clip-path="url(#cl_4)">
		<path fill="#E15759" d="M10 4L161.56381 4L161.56381 20L10 20L10 4Z"/>
	</g>
</g>
<g class="bar" id="cold-start_napi">
    <clipPath id="cl_5">
		<path d="M10 16L26.166666 16L26.166666 0L10 0L10 16ZM26.666666 0L26.666666 16L42.833332 16L42.833332 0L26.666666 0ZM43.333332 0L43.333332 16L59.5 16L59.5 0L43.333332 0ZM60 0L60 16L76.166664 16L76.166664 0L60 0Z" clip-rule="evenodd"/>
	</clipPath>
	<g clip-path="url(#cl_5)">
		<path fill="#EDC949" d="M10 4L73.164047 4L73.164047 20L10 20L10 4Z"/>
	</g>
</g>
<g class="bar" id="cold-start_skia-sync">
    <clipPath id="cl_6">
		<rect x="10" width="16.166666" height="16"/>
	</clipPath>
	<g clip-path="url(#cl_6)">
		<path fill="#4E79A7" d="M10 4L10.335549 4L10.335549 20L10 20L10 4Z"/>
	</g>
</g>
<g class="bar" id="house_wasm">
    <clipPath id="cl_7">
		<path d="M10 16L26.166666 16L26.166666 0L10 0L10 16ZM26.666666 0L26.666666 16L42.833332 16L42.833332 0L26.666666 0ZM43.333332 0L43.333332 16L59.5 16L59.5 0L43.333332 0ZM60 0L60 16L76.166664 16L76.166664 0L60 0Z" clip-rule="evenodd"/>
	</clipPath>
	<g clip-path="url(#cl_7)">
		<path fill="#59A14F" d="M10 4L74.198204 4L74.198204 20L10 20L10 4Z"/>
	</g>
</g>
<g class="bar" id="house_canvas">
    <clipPath id="cl_8">
		<path d="M10 16L26.166666 16L26.166666 0L10 0L10 16ZM26.666666 0L26.666666 16L42.833332 16L42.833332 0L26.666666 0ZM43.333332 0L43.333332 16L59.5 16L59.5 0L43.333332 0Z" clip-rule="evenodd"/>
	</clipPath>
	<g clip-path="url(#cl_8)">
		<path fill="#E15759" d="M10 4L56.335381 4L56.335381 20L10 20L10 4Z"/>
	</g>
</g>
<g class="bar" id="house_napi">
    <clipPath id="cl_9">
		<path d="M10 16L26.166666 16L26.166666 0L10 0L10 16ZM26.666666 0L26.666666 16L42.833332 16L42.833332 0L26.666666 0ZM43.333332 0L43.333332 16L59.5 16L59.5 0L43.333332 0Z" clip-rule="evenodd"/>
	</clipPath>
	<g clip-path="url(#cl_9)">
		<path fill="#EDC949" d="M10 4L49.999577 4L49.999577 20L10 20L10 4Z"/>
	</g>
</g>
<g class="bar" id="house_skia-sync">
    <clipPath id="cl_a">
		<path d="M10 16L26.166666 16L26.166666 0L10 0L10 16ZM26.666666 0L26.666666 16L42.833332 16L42.833332 0L26.666666 0ZM43.333332 0L43.333332 16L59.5 16L59.5 0L43.333332 0Z" clip-rule="evenodd"/>
	</clipPath>
	<g clip-path="url(#cl_a)">
		<path fill="#4E79A7" d="M10 4L55.83749 4L55.83749 20L10 20L10 4Z"/>
	</g>
</g>
<g class="bar" id="house_skia-async">
    <clipPath id="cl_b">
		<rect x="10" width="16.166666" height="16"/>
	</clipPath>
	<g clip-path="url(#cl_b)">
		<path fill="#76B7B2" d="M10 4L13.891668 4L13.891668 20L10 20L10 4Z"/>
	</g>
</g>
<g class="bar" id="path2d_canvas">
    <clipPath id="cl_c">
		<path d="M10 16L26.166666 16L26.166666 0L10 0L10 16ZM26.666666 0L26.666666 16L42.833332 16L42.833332 0L26.666666 0ZM43.333332 0L43.333332 16L59.5 16L59.5 0L43.333332 0ZM60 0L60 16L76.166664 16L76.166664 0L60 0ZM76.666664 0L76.666664 16L92.833328 16L92.833328 0L76.666664 0ZM93.333336 0L93.333336 16L109.5 16L109.5 0L93.333336 0ZM110 0L110 16L126.16666 16L126.16666 0L110 0ZM126.66666 0L126.66666 16L142.83333 16L142.83333 0L126.66666 0ZM143.33333 0L143.33333 16L159.5 16L159.5 0L143.33333 0ZM160 0L160 16L176.16667 16L176.16667 0L160 0ZM176.66667 0L176.66667 16L192.83334 16L192.83334 0L176.66667 0ZM193.33333 0L193.33333 16L209.5 16L209.5 0L193.33333 0ZM210 0L210 16L226.16667 16L226.16667 0L210 0Z" clip-rule="evenodd"/>
	</clipPath>
	<g clip-path="url(#cl_c)">
		<path fill="#E15759" d="M10 4L224.28551 4L224.28551 20L10 20L10 4Z"/>
	</g>
</g>
<g class="bar" id="path2d_napi">
    <clipPath id="cl_d">
		<path d="M10 16L26.166666 16L26.166666 0L10 0L10 16ZM26.666666 0L26.666666 16L42.833332 16L42.833332 0L26.666666 0ZM43.333332 0L43.333332 16L59.5 16L59.5 0L43.333332 0ZM60 0L60 16L76.166664 16L76.166664 0L60 0ZM76.666664 0L76.666664 16L92.833328 16L92.833328 0L76.666664 0ZM93.333336 0L93.333336 16L109.5 16L109.5 0L93.333336 0ZM110 0L110 16L126.16666 16L126.16666 0L110 0ZM126.66666 0L126.66666 16L142.83333 16L142.83333 0L126.66666 0ZM143.33333 0L143.33333 16L159.5 16L159.5 0L143.33333 0Z" clip-rule="evenodd"/>
	</clipPath>
	<g clip-path="url(#cl_d)">
		<path fill="#EDC949" d="M10 4L146.36098 4L146.36098 20L10 20L10 4Z"/>
	</g>
</g>
<g class="bar" id="path2d_skia-sync">
    <clipPath id="cl_e">
		<path d="M10 16L26.166666 16L26.166666 0L10 0L10 16ZM26.666666 0L26.666666 16L42.833332 16L42.833332 0L26.666666 0ZM43.333332 0L43.333332 16L59.5 16L59.5 0L43.333332 0ZM60 0L60 16L76.166664 16L76.166664 0L60 0ZM76.666664 0L76.666664 16L92.833328 16L92.833328 0L76.666664 0ZM93.333336 0L93.333336 16L109.5 16L109.5 0L93.333336 0ZM110 0L110 16L126.16666 16L126.16666 0L110 0Z" clip-rule="evenodd"/>
	</clipPath>
	<g clip-path="url(#cl_e)">
		<path fill="#4E79A7" d="M10 4L118.43771 4L118.43771 20L10 20L10 4Z"/>
	</g>
</g>
<g class="bar" id="path2d_skia-async">
    <clipPath id="cl_f">
		<rect x="10" width="16.166666" height="16"/>
	</clipPath>
	<g clip-path="url(#cl_f)">
		<path fill="#76B7B2" d="M10 4L19.674042 4L19.674042 20L10 20L10 4Z"/>
	</g>
</g>
<g class="bar" id="beziers_wasm">
    <clipPath id="cl_10">
		<path d="M10 16L26.166666 16L26.166666 0L10 0L10 16ZM26.666666 0L26.666666 16L42.833332 16L42.833332 0L26.666666 0ZM43.333332 0L43.333332 16L59.5 16L59.5 0L43.333332 0ZM60 0L60 16L76.166664 16L76.166664 0L60 0ZM76.666664 0L76.666664 16L92.833328 16L92.833328 0L76.666664 0ZM93.333336 0L93.333336 16L109.5 16L109.5 0L93.333336 0ZM110 0L110 16L126.16666 16L126.16666 0L110 0ZM126.66666 0L126.66666 16L142.83333 16L142.83333 0L126.66666 0ZM143.33333 0L143.33333 16L159.5 16L159.5 0L143.33333 0ZM160 0L160 16L176.16667 16L176.16667 0L160 0ZM176.66667 0L176.66667 16L192.83334 16L192.83334 0L176.66667 0ZM193.33333 0L193.33333 16L209.5 16L209.5 0L193.33333 0ZM210 0L210 16L226.16667 16L226.16667 0L210 0ZM226.66667 0L226.66667 16L242.83334 16L242.83334 0L226.66667 0ZM243.33333 0L243.33333 16L259.5 16L259.5 0L243.33333 0Z" clip-rule="evenodd"/>
	</clipPath>
	<g clip-path="url(#cl_10)">
		<path fill="#59A14F" d="M10 4L258.19986 4L258.19986 20L10 20L10 4Z"/>
	</g>
</g>
<g class="bar" id="beziers_canvas">
    <clipPath id="cl_11">
		<path d="M10 16L26.166666 16L26.166666 0L10 0L10 16ZM26.666666 0L26.666666 16L42.833332 16L42.833332 0L26.666666 0ZM43.333332 0L43.333332 16L59.5 16L59.5 0L43.333332 0ZM60 0L60 16L76.166664 16L76.166664 0L60 0ZM76.666664 0L76.666664 16L92.833328 16L92.833328 0L76.666664 0ZM93.333336 0L93.333336 16L109.5 16L109.5 0L93.333336 0ZM110 0L110 16L126.16666 16L126.16666 0L110 0ZM126.66666 0L126.66666 16L142.83333 16L142.83333 0L126.66666 0Z" clip-rule="evenodd"/>
	</clipPath>
	<g clip-path="url(#cl_11)">
		<path fill="#E15759" d="M10 4L141.68689 4L141.68689 20L10 20L10 4Z"/>
	</g>
</g>
<g class="bar" id="beziers_napi">
    <clipPath id="cl_12">
		<path d="M10 16L26.166666 16L26.166666 0L10 0L10 16ZM26.666666 0L26.666666 16L42.833332 16L42.833332 0L26.666666 0ZM43.333332 0L43.333332 16L59.5 16L59.5 0L43.333332 0ZM60 0L60 16L76.166664 16L76.166664 0L60 0Z" clip-rule="evenodd"/>
	</clipPath>
	<g clip-path="url(#cl_12)">
		<path fill="#EDC949" d="M10 4L72.890694 4L72.890694 20L10 20L10 4Z"/>
	</g>
</g>
<g class="bar" id="beziers_skia-sync">
    <clipPath id="cl_13">
		<path d="M10 16L26.166666 16L26.166666 0L10 0L10 16ZM26.666666 0L26.666666 16L42.833332 16L42.833332 0L26.666666 0ZM43.333332 0L43.333332 16L59.5 16L59.5 0L43.333332 0Z" clip-rule="evenodd"/>
	</clipPath>
	<g clip-path="url(#cl_13)">
		<path fill="#4E79A7" d="M10 4L46.428234 4L46.428234 20L10 20L10 4Z"/>
	</g>
</g>
<g class="bar" id="beziers_skia-async">
    <clipPath id="cl_14">
		<rect x="10" width="16.166666" height="16"/>
	</clipPath>
	<g clip-path="url(#cl_14)">
		<path fill="#76B7B2" d="M10 4L14.97752 4L14.97752 20L10 20L10 4Z"/>
	</g>
</g>
<g class="bar" id="from-svg_canvas">
    <clipPath id="cl_15">
		<path d="M10 16L26.166666 16L26.166666 0L10 0L10 16ZM26.666666 0L26.666666 16L42.833332 16L42.833332 0L26.666666 0ZM43.333332 0L43.333332 16L59.5 16L59.5 0L43.333332 0ZM60 0L60 16L76.166664 16L76.166664 0L60 0ZM76.666664 0L76.666664 16L92.833328 16L92.833328 0L76.666664 0ZM93.333336 0L93.333336 16L109.5 16L109.5 0L93.333336 0ZM110 0L110 16L126.16666 16L126.16666 0L110 0ZM126.66666 0L126.66666 16L142.83333 16L142.83333 0L126.66666 0ZM143.33333 0L143.33333 16L159.5 16L159.5 0L143.33333 0ZM160 0L160 16L176.16667 16L176.16667 0L160 0ZM176.66667 0L176.66667 16L192.83334 16L192.83334 0L176.66667 0Z" clip-rule="evenodd"/>
	</clipPath>
	<g clip-path="url(#cl_15)">
		<path fill="#E15759" d="M10 4L192.45343 4L192.45343 20L10 20L10 4Z"/>
	</g>
</g>
<g class="bar" id="from-svg_napi">
    <clipPath id="cl_16">
		<path d="M10 16L26.166666 16L26.166666 0L10 0L10 16ZM26.666666 0L26.666666 16L42.833332 16L42.833332 0L26.666666 0ZM43.333332 0L43.333332 16L59.5 16L59.5 0L43.333332 0ZM60 0L60 16L76.166664 16L76.166664 0L60 0ZM76.666664 0L76.666664 16L92.833328 16L92.833328 0L76.666664 0ZM93.333336 0L93.333336 16L109.5 16L109.5 0L93.333336 0ZM110 0L110 16L126.16666 16L126.16666 0L110 0ZM126.66666 0L126.66666 16L142.83333 16L142.83333 0L126.66666 0ZM143.33333 0L143.33333 16L159.5 16L159.5 0L143.33333 0Z" clip-rule="evenodd"/>
	</clipPath>
	<g clip-path="url(#cl_16)">
		<path fill="#EDC949" d="M10 4L146.83936 4L146.83936 20L10 20L10 4Z"/>
	</g>
</g>
<g class="bar" id="from-svg_skia-sync">
    <clipPath id="cl_17">
		<path d="M10 16L26.166666 16L26.166666 0L10 0L10 16ZM26.666666 0L26.666666 16L42.833332 16L42.833332 0L26.666666 0ZM43.333332 0L43.333332 16L59.5 16L59.5 0L43.333332 0ZM60 0L60 16L76.166664 16L76.166664 0L60 0ZM76.666664 0L76.666664 16L92.833328 16L92.833328 0L76.666664 0Z" clip-rule="evenodd"/>
	</clipPath>
	<g clip-path="url(#cl_17)">
		<path fill="#4E79A7" d="M10 4L89.928513 4L89.928513 20L10 20L10 4Z"/>
	</g>
</g>
<g class="bar" id="from-svg_skia-async">
    <clipPath id="cl_18">
		<rect x="10" width="16.166666" height="16"/>
	</clipPath>
	<g clip-path="url(#cl_18)">
		<path fill="#76B7B2" d="M10 4L17.722137 4L17.722137 20L10 20L10 4Z"/>
	</g>
</g>
<g class="bar" id="to-svg_canvas">
    <clipPath id="cl_19">
		<path d="M10 16L26.166666 16L26.166666 0L10 0L10 16ZM26.666666 0L26.666666 16L42.833332 16L42.833332 0L26.666666 0ZM43.333332 0L43.333332 16L59.5 16L59.5 0L43.333332 0ZM60 0L60 16L76.166664 16L76.166664 0L60 0ZM76.666664 0L76.666664 16L92.833328 16L92.833328 0L76.666664 0ZM93.333336 0L93.333336 16L109.5 16L109.5 0L93.333336 0Z" clip-rule="evenodd"/>
	</clipPath>
	<g clip-path="url(#cl_19)">
		<path fill="#E15759" d="M10 4L102.11787 4L102.11787 20L10 20L10 4Z"/>
	</g>
</g>
<g class="bar" id="to-svg_napi">
    <clipPath id="cl_1a">
		<path d="M10 16L26.166666 16L26.166666 0L10 0L10 16ZM26.666666 0L26.666666 16L42.833332 16L42.833332 0L26.666666 0ZM43.333332 0L43.333332 16L59.5 16L59.5 0L43.333332 0ZM60 0L60 16L76.166664 16L76.166664 0L60 0ZM76.666664 0L76.666664 16L92.833328 16L92.833328 0L76.666664 0ZM93.333336 0L93.333336 16L109.5 16L109.5 0L93.333336 0Z" clip-rule="evenodd"/>
	</clipPath>
	<g clip-path="url(#cl_1a)">
		<path fill="#EDC949" d="M10 4L107.84201 4L107.84201 20L10 20L10 4Z"/>
	</g>
</g>
<g class="bar" id="to-svg_skia-sync">
    <clipPath id="cl_1b">
		<rect x="10" width="16.166666" height="16"/>
	</clipPath>
	<g clip-path="url(#cl_1b)">
		<path fill="#4E79A7" d="M10 4L20.267223 4L20.267223 20L10 20L10 4Z"/>
	</g>
</g>
<g class="bar" id="to-svg_skia-async">
    <clipPath id="cl_1c">
		<rect x="10" width="16.166666" height="16"/>
	</clipPath>
	<g clip-path="url(#cl_1c)">
		<path fill="#76B7B2" d="M10 4L18.859493 4L18.859493 20L10 20L10 4Z"/>
	</g>
</g>
<g class="bar" id="to-pdf_canvas">
    <clipPath id="cl_1d">
		<path d="M10 16L26.166666 16L26.166666 0L10 0L10 16ZM26.666666 0L26.666666 16L42.833332 16L42.833332 0L26.666666 0ZM43.333332 0L43.333332 16L59.5 16L59.5 0L43.333332 0ZM60 0L60 16L76.166664 16L76.166664 0L60 0ZM76.666664 0L76.666664 16L92.833328 16L92.833328 0L76.666664 0Z" clip-rule="evenodd"/>
	</clipPath>
	<g clip-path="url(#cl_1d)">
		<path fill="#E15759" d="M10 4L84.732323 4L84.732323 20L10 20L10 4Z"/>
	</g>
</g>
<g class="bar" id="to-pdf_skia-sync">
    <clipPath id="cl_1e">
		<rect x="10" width="16.166666" height="16"/>
	</clipPath>
	<g clip-path="url(#cl_1e)">
		<path fill="#4E79A7" d="M10 4L24.41198 4L24.41198 20L10 20L10 4Z"/>
	</g>
</g>
<g class="bar" id="to-pdf_skia-async">
    <clipPath id="cl_1f">
		<rect x="10" width="16.166666" height="16"/>
	</clipPath>
	<g clip-path="url(#cl_1f)">
		<path fill="#76B7B2" d="M10 4L13.504448 4L13.504448 20L10 20L10 4Z"/>
	</g>
</g>
<g class="bar" id="image-blit_wasm">
    <clipPath id="cl_20">
		<path d="M10 16L26.166666 16L26.166666 0L10 0L10 16ZM26.666666 0L26.666666 16L42.833332 16L42.833332 0L26.666666 0ZM43.333332 0L43.333332 16L59.5 16L59.5 0L43.333332 0ZM60 0L60 16L76.166664 16L76.166664 0L60 0ZM76.666664 0L76.666664 16L92.833328 16L92.833328 0L76.666664 0ZM93.333336 0L93.333336 16L109.5 16L109.5 0L93.333336 0ZM110 0L110 16L126.16666 16L126.16666 0L110 0ZM126.66666 0L126.66666 16L142.83333 16L142.83333 0L126.66666 0ZM143.33333 0L143.33333 16L159.5 16L159.5 0L143.33333 0ZM160 0L160 16L176.16667 16L176.16667 0L160 0ZM176.66667 0L176.66667 16L192.83334 16L192.83334 0L176.66667 0ZM193.33333 0L193.33333 16L209.5 16L209.5 0L193.33333 0ZM210 0L210 16L226.16667 16L226.16667 0L210 0Z" clip-rule="evenodd"/>
	</clipPath>
	<g clip-path="url(#cl_20)">
		<path fill="#59A14F" d="M10 4L219.32483 4L219.32483 20L10 20L10 4Z"/>
	</g>
</g>
<g class="bar" id="image-blit_canvas">
    <clipPath id="cl_21">
		<path d="M10 16L26.166666 16L26.166666 0L10 0L10 16ZM26.666666 0L26.666666 16L42.833332 16L42.833332 0L26.666666 0ZM43.333332 0L43.333332 16L59.5 16L59.5 0L43.333332 0ZM60 0L60 16L76.166664 16L76.166664 0L60 0ZM76.666664 0L76.666664 16L92.833328 16L92.833328 0L76.666664 0ZM93.333336 0L93.333336 16L109.5 16L109.5 0L93.333336 0ZM110 0L110 16L126.16666 16L126.16666 0L110 0ZM126.66666 0L126.66666 16L142.83333 16L142.83333 0L126.66666 0ZM143.33333 0L143.33333 16L159.5 16L159.5 0L143.33333 0ZM160 0L160 16L176.16667 16L176.16667 0L160 0ZM176.66667 0L176.66667 16L192.83334 16L192.83334 0L176.66667 0ZM193.33333 0L193.33333 16L209.5 16L209.5 0L193.33333 0ZM210 0L210 16L226.16667 16L226.16667 0L210 0Z" clip-rule="evenodd"/>
	</clipPath>
	<g clip-path="url(#cl_21)">
		<path fill="#E15759" d="M10 4L214.55428 4L214.55428 20L10 20L10 4Z"/>
	</g>
</g>
<g class="bar" id="image-blit_napi">
    <clipPath id="cl_22">
		<path d="M10 16L26.166666 16L26.166666 0L10 0L10 16ZM26.666666 0L26.666666 16L42.833332 16L42.833332 0L26.666666 0ZM43.333332 0L43.333332 16L59.5 16L59.5 0L43.333332 0ZM60 0L60 16L76.166664 16L76.166664 0L60 0ZM76.666664 0L76.666664 16L92.833328 16L92.833328 0L76.666664 0Z" clip-rule="evenodd"/>
	</clipPath>
	<g clip-path="url(#cl_22)">
		<path fill="#EDC949" d="M10 4L91.381645 4L91.381645 20L10 20L10 4Z"/>
	</g>
</g>
<g class="bar" id="image-blit_skia-sync">
    <clipPath id="cl_23">
		<path d="M10 16L26.166666 16L26.166666 0L10 0L10 16ZM26.666666 0L26.666666 16L42.833332 16L42.833332 0L26.666666 0ZM43.333332 0L43.333332 16L59.5 16L59.5 0L43.333332 0ZM60 0L60 16L76.166664 16L76.166664 0L60 0ZM76.666664 0L76.666664 16L92.833328 16L92.833328 0L76.666664 0Z" clip-rule="evenodd"/>
	</clipPath>
	<g clip-path="url(#cl_23)">
		<path fill="#4E79A7" d="M10 4L81.861137 4L81.861137 20L10 20L10 4Z"/>
	</g>
</g>
<g class="bar" id="image-blit_skia-async">
    <clipPath id="cl_24">
		<rect x="10" width="16.166666" height="16"/>
	</clipPath>
	<g clip-path="url(#cl_24)">
		<path fill="#76B7B2" d="M10 4L17.254951 4L17.254951 20L10 20L10 4Z"/>
	</g>
</g>
<g class="bar" id="image-rw_canvas">
    <clipPath id="cl_25">
		<path d="M10 16L26.166666 16L26.166666 0L10 0L10 16ZM26.666666 0L26.666666 16L42.833332 16L42.833332 0L26.666666 0ZM43.333332 0L43.333332 16L59.5 16L59.5 0L43.333332 0ZM60 0L60 16L76.166664 16L76.166664 0L60 0ZM76.666664 0L76.666664 16L92.833328 16L92.833328 0L76.666664 0ZM93.333336 0L93.333336 16L109.5 16L109.5 0L93.333336 0ZM110 0L110 16L126.16666 16L126.16666 0L110 0ZM126.66666 0L126.66666 16L142.83333 16L142.83333 0L126.66666 0ZM143.33333 0L143.33333 16L159.5 16L159.5 0L143.33333 0Z" clip-rule="evenodd"/>
	</clipPath>
	<g clip-path="url(#cl_25)">
		<path fill="#E15759" d="M10 4L156.53561 4L156.53561 20L10 20L10 4Z"/>
	</g>
</g>
<g class="bar" id="image-rw_napi">
    <clipPath id="cl_26">
		<path d="M10 16L26.166666 16L26.166666 0L10 0L10 16ZM26.666666 0L26.666666 16L42.833332 16L42.833332 0L26.666666 0ZM43.333332 0L43.333332 16L59.5 16L59.5 0L43.333332 0ZM60 0L60 16L76.166664 16L76.166664 0L60 0ZM76.666664 0L76.666664 16L92.833328 16L92.833328 0L76.666664 0ZM93.333336 0L93.333336 16L109.5 16L109.5 0L93.333336 0Z" clip-rule="evenodd"/>
	</clipPath>
	<g clip-path="url(#cl_26)">
		<path fill="#EDC949" d="M10 4L98.634941 4L98.634941 20L10 20L10 4Z"/>
	</g>
</g>
<g class="bar" id="image-rw_skia-sync">
    <clipPath id="cl_27">
		<path d="M10 16L26.166666 16L26.166666 0L10 0L10 16ZM26.666666 0L26.666666 16L42.833332 16L42.833332 0L26.666666 0ZM43.333332 0L43.333332 16L59.5 16L59.5 0L43.333332 0ZM60 0L60 16L76.166664 16L76.166664 0L60 0ZM76.666664 0L76.666664 16L92.833328 16L92.833328 0L76.666664 0ZM93.333336 0L93.333336 16L109.5 16L109.5 0L93.333336 0ZM110 0L110 16L126.16666 16L126.16666 0L110 0ZM126.66666 0L126.66666 16L142.83333 16L142.83333 0L126.66666 0ZM143.33333 0L143.33333 16L159.5 16L159.5 0L143.33333 0Z" clip-rule="evenodd"/>
	</clipPath>
	<g clip-path="url(#cl_27)">
		<path fill="#4E79A7" d="M10 4L151.67093 4L151.67093 20L10 20L10 4Z"/>
	</g>
</g>
<g class="bar" id="image-rw_skia-async">
    <clipPath id="cl_28">
		<path d="M10 16L26.166666 16L26.166666 0L10 0L10 16ZM26.666666 0L26.666666 16L42.833332 16L42.833332 0L26.666666 0ZM43.333332 0L43.333332 16L59.5 16L59.5 0L43.333332 0ZM60 0L60 16L76.166664 16L76.166664 0L60 0ZM76.666664 0L76.666664 16L92.833328 16L92.833328 0L76.666664 0ZM93.333336 0L93.333336 16L109.5 16L109.5 0L93.333336 0Z" clip-rule="evenodd"/>
	</clipPath>
	<g clip-path="url(#cl_28)">
		<path fill="#76B7B2" d="M10 4L108.46994 4L108.46994 20L10 20L10 4Z"/>
	</g>
</g>
<g class="bar" id="gradients_wasm">
    <clipPath id="cl_29">
		<path d="M10 16L26.166666 16L26.166666 0L10 0L10 16ZM26.666666 0L26.666666 16L42.833332 16L42.833332 0L26.666666 0ZM43.333332 0L43.333332 16L59.5 16L59.5 0L43.333332 0ZM60 0L60 16L76.166664 16L76.166664 0L60 0ZM76.666664 0L76.666664 16L92.833328 16L92.833328 0L76.666664 0ZM93.333336 0L93.333336 16L109.5 16L109.5 0L93.333336 0ZM110 0L110 16L126.16666 16L126.16666 0L110 0ZM126.66666 0L126.66666 16L142.83333 16L142.83333 0L126.66666 0ZM143.33333 0L143.33333 16L159.5 16L159.5 0L143.33333 0ZM160 0L160 16L176.16667 16L176.16667 0L160 0ZM176.66667 0L176.66667 16L192.83334 16L192.83334 0L176.66667 0ZM193.33333 0L193.33333 16L209.5 16L209.5 0L193.33333 0ZM210 0L210 16L226.16667 16L226.16667 0L210 0Z" clip-rule="evenodd"/>
	</clipPath>
	<g clip-path="url(#cl_29)">
		<path fill="#59A14F" d="M10 4L217.38409 4L217.38409 20L10 20L10 4Z"/>
	</g>
</g>
<g class="bar" id="gradients_canvas">
    <clipPath id="cl_2a">
		<path d="M10 16L26.166666 16L26.166666 0L10 0L10 16ZM26.666666 0L26.666666 16L42.833332 16L42.833332 0L26.666666 0ZM43.333332 0L43.333332 16L59.5 16L59.5 0L43.333332 0ZM60 0L60 16L76.166664 16L76.166664 0L60 0ZM76.666664 0L76.666664 16L92.833328 16L92.833328 0L76.666664 0ZM93.333336 0L93.333336 16L109.5 16L109.5 0L93.333336 0ZM110 0L110 16L126.16666 16L126.16666 0L110 0Z" clip-rule="evenodd"/>
	</clipPath>
	<g clip-path="url(#cl_2a)">
		<path fill="#E15759" d="M10 4L117.36829 4L117.36829 20L10 20L10 4Z"/>
	</g>
</g>
<g class="bar" id="gradients_napi">
    <clipPath id="cl_2b">
		<path d="M10 16L26.166666 16L26.166666 0L10 0L10 16ZM26.666666 0L26.666666 16L42.833332 16L42.833332 0L26.666666 0ZM43.333332 0L43.333332 16L59.5 16L59.5 0L43.333332 0ZM60 0L60 16L76.166664 16L76.166664 0L60 0ZM76.666664 0L76.666664 16L92.833328 16L92.833328 0L76.666664 0ZM93.333336 0L93.333336 16L109.5 16L109.5 0L93.333336 0Z" clip-rule="evenodd"/>
	</clipPath>
	<g clip-path="url(#cl_2b)">
		<path fill="#EDC949" d="M10 4L105.71908 4L105.71908 20L10 20L10 4Z"/>
	</g>
</g>
<g class="bar" id="gradients_skia-sync">
    <clipPath id="cl_2c">
		<path d="M10 16L26.166666 16L26.166666 0L10 0L10 16ZM26.666666 0L26.666666 16L42.833332 16L42.833332 0L26.666666 0ZM43.333332 0L43.333332 16L59.5 16L59.5 0L43.333332 0ZM60 0L60 16L76.166664 16L76.166664 0L60 0ZM76.666664 0L76.666664 16L92.833328 16L92.833328 0L76.666664 0ZM93.333336 0L93.333336 16L109.5 16L109.5 0L93.333336 0ZM110 0L110 16L126.16666 16L126.16666 0L110 0Z" clip-rule="evenodd"/>
	</clipPath>
	<g clip-path="url(#cl_2c)">
		<path fill="#4E79A7" d="M10 4L115.59319 4L115.59319 20L10 20L10 4Z"/>
	</g>
</g>
<g class="bar" id="gradients_skia-async">
    <clipPath id="cl_2d">
		<rect x="10" width="16.166666" height="16"/>
	</clipPath>
	<g clip-path="url(#cl_2d)">
		<path fill="#76B7B2" d="M10 4L20.317497 4L20.317497 20L10 20L10 4Z"/>
	</g>
</g>
<g class="bar" id="text_wasm">
    <clipPath id="cl_2e">
		<path d="M10 16L26.166666 16L26.166666 0L10 0L10 16ZM26.666666 0L26.666666 16L42.833332 16L42.833332 0L26.666666 0ZM43.333332 0L43.333332 16L59.5 16L59.5 0L43.333332 0ZM60 0L60 16L76.166664 16L76.166664 0L60 0ZM76.666664 0L76.666664 16L92.833328 16L92.833328 0L76.666664 0Z" clip-rule="evenodd"/>
	</clipPath>
	<g clip-path="url(#cl_2e)">
		<path fill="#59A14F" d="M10 4L77.070976 4L77.070976 20L10 20L10 4Z"/>
	</g>
</g>
<g class="bar" id="text_canvas">
    <clipPath id="cl_2f">
		<path d="M10 16L26.166666 16L26.166666 0L10 0L10 16ZM26.666666 0L26.666666 16L42.833332 16L42.833332 0L26.666666 0ZM43.333332 0L43.333332 16L59.5 16L59.5 0L43.333332 0ZM60 0L60 16L76.166664 16L76.166664 0L60 0ZM76.666664 0L76.666664 16L92.833328 16L92.833328 0L76.666664 0Z" clip-rule="evenodd"/>
	</clipPath>
	<g clip-path="url(#cl_2f)">
		<path fill="#E15759" d="M10 4L78.293465 4L78.293465 20L10 20L10 4Z"/>
	</g>
</g>
<g class="bar" id="text_napi">
    <clipPath id="cl_30">
		<path d="M10 16L26.166666 16L26.166666 0L10 0L10 16ZM26.666666 0L26.666666 16L42.833332 16L42.833332 0L26.666666 0ZM43.333332 0L43.333332 16L59.5 16L59.5 0L43.333332 0ZM60 0L60 16L76.166664 16L76.166664 0L60 0Z" clip-rule="evenodd"/>
	</clipPath>
	<g clip-path="url(#cl_30)">
		<path fill="#EDC949" d="M10 4L63.897503 4L63.897503 20L10 20L10 4Z"/>
	</g>
</g>
<g class="bar" id="text_skia-sync">
    <clipPath id="cl_31">
		<path d="M10 16L26.166666 16L26.166666 0L10 0L10 16ZM26.666666 0L26.666666 16L42.833332 16L42.833332 0L26.666666 0ZM43.333332 0L43.333332 16L59.5 16L59.5 0L43.333332 0ZM60 0L60 16L76.166664 16L76.166664 0L60 0Z" clip-rule="evenodd"/>
	</clipPath>
	<g clip-path="url(#cl_31)">
		<path fill="#4E79A7" d="M10 4L70.637146 4L70.637146 20L10 20L10 4Z"/>
	</g>
</g>
<g class="bar" id="text_skia-async">
    <clipPath id="cl_32">
		<rect x="10" width="16.166666" height="16"/>
	</clipPath>
	<g clip-path="url(#cl_32)">
		<path fill="#76B7B2" d="M10 4L15.926905 4L15.926905 20L10 20L10 4Z"/>
	</g>
</g>
      </svg>