<?xml version="1.0" encoding="utf-8" ?>
      <svg xmlns="http://www.w3.org/2000/svg" xmlns:xlink="http://www.w3.org/1999/xlink" width="260" height="16">
        <defs>
          <style>
            <![CDATA[
              .bar { display: none; }
              .bar:target { display: inline; }
            ]]>
          </style>
        </defs>
        <g class="bar" id="cold-start_wasm">
    <clipPath id="cl_3">
		<path d="M10 16L25.125 16L25.125 0L10 0L10 16ZM25.625 0L25.625 16L40.75 16L40.75 0L25.625 0Z" clip-rule="evenodd"/>
	</clipPath>
	<g clip-path="url(#cl_3)">
		<path fill="#59A14F" d="M10 4L28.958971 4L28.958971 20L10 20L10 4Z"/>
	</g>
</g>
<g class="bar" id="cold-start_canvas">
    <clipPath id="cl_4">
		<path d="M10 16L25.125 16L25.125 0L10 0L10 16ZM25.625 0L25.625 16L40.75 16L40.75 0L25.625 0ZM41.25 0L41.25 16L56.375 16L56.375 0L41.25 0ZM56.875 0L56.875 16L72 16L72 0L56.875 0ZM72.5 0L72.5 16L87.625 16L87.625 0L72.5 0Z" clip-rule="evenodd"/>
	</clipPath>
	<g clip-path="url(#cl_4)">
		<path fill="#E15759" d="M10 4L86.657005 4L86.657005 20L10 20L10 4Z"/>
	</g>
</g>
<g class="bar" id="cold-start_napi">
    <clipPath id="cl_5">
		<path d="M10 16L25.125 16L25.125 0L10 0L10 16ZM25.625 0L25.625 16L40.75 16L40.75 0L25.625 0ZM41.25 0L41.25 16L56.375 16L56.375 0L41.25 0ZM56.875 0L56.875 16L72 16L72 0L56.875 0Z" clip-rule="evenodd"/>
	</clipPath>
	<g clip-path="url(#cl_5)">
		<path fill="#EDC949" d="M10 4L67.069885 4L67.069885 20L10 20L10 4Z"/>
	</g>
</g>
<g class="bar" id="cold-start_skia-sync">
    <clipPath id="cl_6">
		<rect x="10" width="15.125" height="16"/>
	</clipPath>
	<g clip-path="url(#cl_6)">
		<path fill="#4E79A7" d="M10 4L10.253686 4L10.253686 20L10 20L10 4Z"/>
	</g>
</g>
<g class="bar" id="house_wasm">
    <clipPath id="cl_7">
		<path d="M10 16L25.125 16L25.125 0L10 0L10 16ZM25.625 0L25.625 16L40.75 16L40.75 0L25.625 0ZM41.25 0L41.25 16L56.375 16L56.375 0L41.25 0ZM56.875 0L56.875 16L72 16L72 0L56.875 0ZM72.5 0L72.5 16L87.625 16L87.625 0L72.5 0Z" clip-rule="evenodd"/>
	</clipPath>
	<g clip-path="url(#cl_7)">
		<path fill="#59A14F" d="M10 4L79.596199 4L79.596199 20L10 20L10 4Z"/>
	</g>
</g>
<g class="bar" id="house_canvas">
    <clipPath id="cl_8">
		<path d="M10 16L25.125 16L25.125 0L10 0L10 16ZM25.625 0L25.625 16L40.75 16L40.75 0L25.625 0ZM41.25 0L41.25 16L56.375 16L56.375 0L41.25 0ZM56.875 0L56.875 16L72 16L72 0L56.875 0Z" clip-rule="evenodd"/>
	</clipPath>
	<g clip-path="url(#cl_8)">
		<path fill="#E15759" d="M10 4L61.282436 4L61.282436 20L10 20L10 4Z"/>
	</g>
</g>
<g class="bar" id="house_napi">
    <clipPath id="cl_9">
		<path d="M10 16L25.125 16L25.125 0L10 0L10 16ZM25.625 0L25.625 16L40.75 16L40.75 0L25.625 0ZM41.25 0L41.25 16L56.375 16L56.375 0L41.25 0Z" clip-rule="evenodd"/>
	</clipPath>
	<g clip-path="url(#cl_9)">
		<path fill="#EDC949" d="M10 4L55.099339 4L55.099339 20L10 20L10 4Z"/>
	</g>
</g>
<g class="bar" id="house_skia-sync">
    <clipPath id="cl_a">
		<path d="M10 16L25.125 16L25.125 0L10 0L10 16ZM25.625 0L25.625 16L40.75 16L40.75 0L25.625 0ZM41.25 0L41.25 16L56.375 16L56.375 0L41.25 0ZM56.875 0L56.875 16L72 16L72 0L56.875 0Z" clip-rule="evenodd"/>
	</clipPath>
	<g clip-path="url(#cl_a)">
		<path fill="#4E79A7" d="M10 4L59.959389 4L59.959389 20L10 20L10 4Z"/>
	</g>
</g>
<g class="bar" id="house_skia-async">
    <clipPath id="cl_b">
		<rect x="10" width="15.125" height="16"/>
	</clipPath>
	<g clip-path="url(#cl_b)">
		<path fill="#76B7B2" d="M10 4L19.763468 4L19.763468 20L10 20L10 4Z"/>
	</g>
</g>
<g class="bar" id="path2d_canvas">
    <clipPath id="cl_c">
		<path d="M10 16L25.125 16L25.125 0L10 0L10 16ZM25.625 0L25.625 16L40.75 16L40.75 0L25.625 0ZM41.25 0L41.25 16L56.375 16L56.375 0L41.25 0ZM56.875 0L56.875 16L72 16L72 0L56.875 0ZM72.5 0L72.5 16L87.625 16L87.625 0L72.5 0ZM88.125 0L88.125 16L103.25 16L103.25 0L88.125 0ZM103.75 0L103.75 16L118.875 16L118.875 0L103.75 0ZM119.375 0L119.375 16L134.5 16L134.5 0L119.375 0ZM135 0L135 16L150.125 16L150.125 0L135 0ZM150.625 0L150.625 16L165.75 16L165.75 0L150.625 0ZM166.25 0L166.25 16L181.375 16L181.375 0L166.25 0ZM181.875 0L181.875 16L197 16L197 0L181.875 0ZM197.5 0L197.5 16L212.625 16L212.625 0L197.5 0ZM213.125 0L213.125 16L228.25 16L228.25 0L213.125 0ZM228.75 0L228.75 16L243.875 16L243.875 0L228.75 0ZM244.375 0L244.375 16L259.5 16L259.5 0L244.375 0Z" clip-rule="evenodd"/>
	</clipPath>
	<g clip-path="url(#cl_c)">
		<path fill="#E15759" d="M10 4L245.40253 4L245.40253 20L10 20L10 4Z"/>
	</g>
</g>
<g class="bar" id="path2d_napi">
    <clipPath id="cl_d">
		<path d="M10 16L25.125 16L25.125 0L10 0L10 16ZM25.625 0L25.625 16L40.75 16L40.75 0L25.625 0ZM41.25 0L41.25 16L56.375 16L56.375 0L41.25 0ZM56.875 0L56.875 16L72 16L72 0L56.875 0ZM72.5 0L72.5 16L87.625 16L87.625 0L72.5 0ZM88.125 0L88.125 16L103.25 16L103.25 0L88.125 0ZM103.75 0L103.75 16L118.875 16L118.875 0L103.75 0ZM119.375 0L119.375 16L134.5 16L134.5 0L119.375 0ZM135 0L135 16L150.125 16L150.125 0L135 0ZM150.625 0L150.625 16L165.75 16L165.75 0L150.625 0Z" clip-rule="evenodd"/>
	</clipPath>
	<g clip-path="url(#cl_d)">
		<path fill="#EDC949" d="M10 4L161.2356 4L161.2356 20L10 20L10 4Z"/>
	</g>
</g>
<g class="bar" id="path2d_skia-sync">
    <clipPath id="cl_e">
		<path d="M10 16L25.125 16L25.125 0L10 0L10 16ZM25.625 0L25.625 16L40.75 16L40.75 0L25.625 0ZM41.25 0L41.25 16L56.375 16L56.375 0L41.25 0ZM56.875 0L56.875 16L72 16L72 0L56.875 0ZM72.5 0L72.5 16L87.625 16L87.625 0L72.5 0ZM88.125 0L88.125 16L103.25 16L103.25 0L88.125 0ZM103.75 0L103.75 16L118.875 16L118.875 0L103.75 0ZM119.375 0L119.375 16L134.5 16L134.5 0L119.375 0Z" clip-rule="evenodd"/>
	</clipPath>
	<g clip-path="url(#cl_e)">
		<path fill="#4E79A7" d="M10 4L128.08322 4L128.08322 20L10 20L10 4Z"/>
	</g>
</g>
<g class="bar" id="path2d_skia-async">
    <clipPath id="cl_f">
		<path d="M10 16L25.125 16L25.125 0L10 0L10 16ZM25.625 0L25.625 16L40.75 16L40.75 0L25.625 0Z" clip-rule="evenodd"/>
	</clipPath>
	<g clip-path="url(#cl_f)">
		<path fill="#76B7B2" d="M10 4L31.550676 4L31.550676 20L10 20L10 4Z"/>
	</g>
</g>
<g class="bar" id="beziers_wasm">
    <clipPath id="cl_10">
		<path d="M10 16L25.125 16L25.125 0L10 0L10 16ZM25.625 0L25.625 16L40.75 16L40.75 0L25.625 0ZM41.25 0L41.25 16L56.375 16L56.375 0L41.25 0ZM56.875 0L56.875 16L72 16L72 0L56.875 0ZM72.5 0L72.5 16L87.625 16L87.625 0L72.5 0ZM88.125 0L88.125 16L103.25 16L103.25 0L88.125 0ZM103.75 0L103.75 16L118.875 16L118.875 0L103.75 0ZM119.375 0L119.375 16L134.5 16L134.5 0L119.375 0ZM135 0L135 16L150.125 16L150.125 0L135 0ZM150.625 0L150.625 16L165.75 16L165.75 0L150.625 0ZM166.25 0L166.25 16L181.375 16L181.375 0L166.25 0ZM181.875 0L181.875 16L197 16L197 0L181.875 0ZM197.5 0L197.5 16L212.625 16L212.625 0L197.5 0ZM213.125 0L213.125 16L228.25 16L228.25 0L213.125 0ZM228.75 0L228.75 16L243.875 16L243.875 0L228.75 0ZM244.375 0L244.375 16L259.5 16L259.5 0L244.375 0Z" clip-rule="evenodd"/>
	</clipPath>
	<g clip-path="url(#cl_10)">
		<path fill="#59A14F" d="M10 4L253.55748 4L253.55748 20L10 20L10 4Z"/>
	</g>
</g>
<g class="bar" id="beziers_canvas">
    <clipPath id="cl_11">
		<path d="M10 16L25.125 16L25.125 0L10 0L10 16ZM25.625 0L25.625 16L40.75 16L40.75 0L25.625 0ZM41.25 0L41.25 16L56.375 16L56.375 0L41.25 0ZM56.875 0L56.875 16L72 16L72 0L56.875 0ZM72.5 0L72.5 16L87.625 16L87.625 0L72.5 0ZM88.125 0L88.125 16L103.25 16L103.25 0L88.125 0ZM103.75 0L103.75 16L118.875 16L118.875 0L103.75 0ZM119.375 0L119.375 16L134.5 16L134.5 0L119.375 0ZM135 0L135 16L150.125 16L150.125 0L135 0ZM150.625 0L150.625 16L165.75 16L165.75 0L150.625 0Z" clip-rule="evenodd"/>
	</clipPath>
	<g clip-path="url(#cl_11)">
		<path fill="#E15759" d="M10 4L156.75743 4L156.75743 20L10 20L10 4Z"/>
	</g>
</g>
<g class="bar" id="beziers_napi">
    <clipPath id="cl_12">
		<path d="M10 16L25.125 16L25.125 0L10 0L10 16ZM25.625 0L25.625 16L40.75 16L40.75 0L25.625 0ZM41.25 0L41.25 16L56.375 16L56.375 0L41.25 0ZM56.875 0L56.875 16L72 16L72 0L56.875 0ZM72.5 0L72.5 16L87.625 16L87.625 0L72.5 0Z" clip-rule="evenodd"/>
	</clipPath>
	<g clip-path="url(#cl_12)">
		<path fill="#EDC949" d="M10 4L80.498032 4L80.498032 20L10 20L10 4Z"/>
	</g>
</g>
<g class="bar" id="beziers_skia-sync">
    <clipPath id="cl_13">
		<path d="M10 16L25.125 16L25.125 0L10 0L10 16ZM25.625 0L25.625 16L40.75 16L40.75 0L25.625 0ZM41.25 0L41.25 16L56.375 16L56.375 0L41.25 0Z" clip-rule="evenodd"/>
	</clipPath>
	<g clip-path="url(#cl_13)">
		<path fill="#4E79A7" d="M10 4L51.141659 4L51.141659 20L10 20L10 4Z"/>
	</g>
</g>
<g class="bar" id="beziers_skia-async">
    <clipPath id="cl_14">
		<rect x="10" width="15.125" height="16"/>
	</clipPath>
	<g clip-path="url(#cl_14)">
		<path fill="#76B7B2" d="M10 4L18.376003 4L18.376003 20L10 20L10 4Z"/>
	</g>
</g>
<g class="bar" id="from-svg_canvas">
    <clipPath id="cl_15">
		<path d="M10 16L25.125 16L25.125 0L10 0L10 16ZM25.625 0L25.625 16L40.75 16L40.75 0L25.625 0ZM41.25 0L41.25 16L56.375 16L56.375 0L41.25 0ZM56.875 0L56.875 16L72 16L72 0L56.875 0ZM72.5 0L72.5 16L87.625 16L87.625 0L72.5 0ZM88.125 0L88.125 16L103.25 16L103.25 0L88.125 0ZM103.75 0L103.75 16L118.875 16L118.875 0L103.75 0ZM119.375 0L119.375 16L134.5 16L134.5 0L119.375 0ZM135 0L135 16L150.125 16L150.125 0L135 0ZM150.625 0L150.625 16L165.75 16L165.75 0L150.625 0ZM166.25 0L166.25 16L181.375 16L181.375 0L166.25 0ZM181.875 0L181.875 16L197 16L197 0L181.875 0ZM197.5 0L197.5 16L212.625 16L212.625 0L197.5 0Z" clip-rule="evenodd"/>
	</clipPath>
	<g clip-path="url(#cl_15)">
		<path fill="#E15759" d="M10 4L199.43326 4L199.43326 20L10 20L10 4Z"/>
	</g>
</g>
<g class="bar" id="from-svg_napi">
    <clipPath id="cl_16">
		<path d="M10 16L25.125 16L25.125 0L10 0L10 16ZM25.625 0L25.625 16L40.75 16L40.75 0L25.625 0ZM41.25 0L41.25 16L56.375 16L56.375 0L41.25 0ZM56.875 0L56.875 16L72 16L72 0L56.875 0ZM72.5 0L72.5 16L87.625 16L87.625 0L72.5 0ZM88.125 0L88.125 16L103.25 16L103.25 0L88.125 0ZM103.75 0L103.75 16L118.875 16L118.875 0L103.75 0ZM119.375 0L119.375 16L134.5 16L134.5 0L119.375 0ZM135 0L135 16L150.125 16L150.125 0L135 0ZM150.625 0L150.625 16L165.75 16L165.75 0L150.625 0Z" clip-rule="evenodd"/>
	</clipPath>
	<g clip-path="url(#cl_16)">
		<path fill="#EDC949" d="M10 4L162.06424 4L162.06424 20L10 20L10 4Z"/>
	</g>
</g>
<g class="bar" id="from-svg_skia-sync">
    <clipPath id="cl_17">
		<path d="M10 16L25.125 16L25.125 0L10 0L10 16ZM25.625 0L25.625 16L40.75 16L40.75 0L25.625 0ZM41.25 0L41.25 16L56.375 16L56.375 0L41.25 0ZM56.875 0L56.875 16L72 16L72 0L56.875 0ZM72.5 0L72.5 16L87.625 16L87.625 0L72.5 0ZM88.125 0L88.125 16L103.25 16L103.25 0L88.125 0Z" clip-rule="evenodd"/>
	</clipPath>
	<g clip-path="url(#cl_17)">
		<path fill="#4E79A7" d="M10 4L102.18688 4L102.18688 20L10 20L10 4Z"/>
	</g>
</g>
<g class="bar" id="from-svg_skia-async">
    <clipPath id="cl_18">
		<path d="M10 16L25.125 16L25.125 0L10 0L10 16ZM25.625 0L25.625 16L40.75 16L40.75 0L25.625 0Z" clip-rule="evenodd"/>
	</clipPath>
	<g clip-path="url(#cl_18)">
		<path fill="#76B7B2" d="M10 4L26.835663 4L26.835663 20L10 20L10 4Z"/>
	</g>
</g>
<g class="bar" id="to-svg_canvas">
    <clipPath id="cl_19">
		<path d="M10 16L25.125 16L25.125 0L10 0L10 16ZM25.625 0L25.625 16L40.75 16L40.75 0L25.625 0ZM41.25 0L41.25 16L56.375 16L56.375 0L41.25 0ZM56.875 0L56.875 16L72 16L72 0L56.875 0ZM72.5 0L72.5 16L87.625 16L87.625 0L72.5 0ZM88.125 0L88.125 16L103.25 16L103.25 0L88.125 0ZM103.75 0L103.75 16L118.875 16L118.875 0L103.75 0Z" clip-rule="evenodd"/>
	</clipPath>
	<g clip-path="url(#cl_19)">
		<path fill="#E15759" d="M10 4L113.28979 4L113.28979 20L10 20L10 4Z"/>
	</g>
</g>
<g class="bar" id="to-svg_napi">
    <clipPath id="cl_1a">
		<path d="M10 16L25.125 16L25.125 0L10 0L10 16ZM25.625 0L25.625 16L40.75 16L40.75 0L25.625 0ZM41.25 0L41.25 16L56.375 16L56.375 0L41.25 0ZM56.875 0L56.875 16L72 16L72 0L56.875 0ZM72.5 0L72.5 16L87.625 16L87.625 0L72.5 0ZM88.125 0L88.125 16L103.25 16L103.25 0L88.125 0ZM103.75 0L103.75 16L118.875 16L118.875 0L103.75 0Z" clip-rule="evenodd"/>
	</clipPath>
	<g clip-path="url(#cl_1a)">
		<path fill="#EDC949" d="M10 4L118.92214 4L118.92214 20L10 20L10 4Z"/>
	</g>
</g>
<g class="bar" id="to-svg_skia-sync">
    <clipPath id="cl_1b">
		<rect x="10" width="15.125" height="16"/>
	</clipPath>
	<g clip-path="url(#cl_1b)">
		<path fill="#4E79A7" d="M10 4L21.171618 4L21.171618 20L10 20L10 4Z"/>
	</g>
</g>
<g class="bar" id="to-svg_skia-async">
    <clipPath id="cl_1c">
		<rect x="10" width="15.125" height="16"/>
	</clipPath>
	<g clip-path="url(#cl_1c)">
		<path fill="#76B7B2" d="M10 4L19.887352 4L19.887352 20L10 20L10 4Z"/>
	</g>
</g>
<g class="bar" id="to-pdf_canvas">
    <clipPath id="cl_1d">
		<path d="M10 16L25.125 16L25.125 0L10 0L10 16ZM25.625 0L25.625 16L40.75 16L40.75 0L25.625 0ZM41.25 0L41.25 16L56.375 16L56.375 0L41.25 0ZM56.875 0L56.875 16L72 16L72 0L56.875 0ZM72.5 0L72.5 16L87.625 16L87.625 0L72.5 0ZM88.125 0L88.125 16L103.25 16L103.25 0L88.125 0Z" clip-rule="evenodd"/>
	</clipPath>
	<g clip-path="url(#cl_1d)">
		<path fill="#E15759" d="M10 4L93.597351 4L93.597351 20L10 20L10 4Z"/>
	</g>
</g>
<g class="bar" id="to-pdf_skia-sync">
    <clipPath id="cl_1e">
		<rect x="10" width="15.125" height="16"/>
	</clipPath>
	<g clip-path="url(#cl_1e)">
		<path fill="#4E79A7" d="M10 4L25.04842 4L25.04842 20L10 20L10 4Z"/>
	</g>
</g>
<g class="bar" id="to-pdf_skia-async">
    <clipPath id="cl_1f">
		<rect x="10" width="15.125" height="16"/>
	</clipPath>
	<g clip-path="url(#cl_1f)">
		<path fill="#76B7B2" d="M10 4L14.908461 4L14.908461 20L10 20L10 4Z"/>
	</g>
</g>
<g class="bar" id="image-blit_wasm">
    <clipPath id="cl_20">
		<path d="M10 16L25.125 16L25.125 0L10 0L10 16ZM25.625 0L25.625 16L40.75 16L40.75 0L25.625 0ZM41.25 0L41.25 16L56.375 16L56.375 0L41.25 0ZM56.875 0L56.875 16L72 16L72 0L56.875 0ZM72.5 0L72.5 16L87.625 16L87.625 0L72.5 0ZM88.125 0L88.125 16L103.25 16L103.25 0L88.125 0ZM103.75 0L103.75 16L118.875 16L118.875 0L103.75 0ZM119.375 0L119.375 16L134.5 16L134.5 0L119.375 0ZM135 0L135 16L150.125 16L150.125 0L135 0ZM150.625 0L150.625 16L165.75 16L165.75 0L150.625 0ZM166.25 0L166.25 16L181.375 16L181.375 0L166.25 0ZM181.875 0L181.875 16L197 16L197 0L181.875 0ZM197.5 0L197.5 16L212.625 16L212.625 0L197.5 0ZM213.125 0L213.125 16L228.25 16L228.25 0L213.125 0ZM228.75 0L228.75 16L243.875 16L243.875 0L228.75 0Z" clip-rule="evenodd"/>
	</clipPath>
	<g clip-path="url(#cl_20)">
		<path fill="#59A14F" d="M10 4L230.28384 4L230.28384 20L10 20L10 4Z"/>
	</g>
</g>
<g class="bar" id="image-blit_canvas">
    <clipPath id="cl_21">
		<path d="M10 16L25.125 16L25.125 0L10 0L10 16ZM25.625 0L25.625 16L40.75 16L40.75 0L25.625 0ZM41.25 0L41.25 16L56.375 16L56.375 0L41.25 0ZM56.875 0L56.875 16L72 16L72 0L56.875 0ZM72.5 0L72.5 16L87.625 16L87.625 0L72.5 0ZM88.125 0L88.125 16L103.25 16L103.25 0L88.125 0ZM103.75 0L103.75 16L118.875 16L118.875 0L103.75 0ZM119.375 0L119.375 16L134.5 16L134.5 0L119.375 0ZM135 0L135 16L150.125 16L150.125 0L135 0ZM150.625 0L150.625 16L165.75 16L165.75 0L150.625 0ZM166.25 0L166.25 16L181.375 16L181.375 0L166.25 0ZM181.875 0L181.875 16L197 16L197 0L181.875 0ZM197.5 0L197.5 16L212.625 16L212.625 0L197.5 0ZM213.125 0L213.125 16L228.25 16L228.25 0L213.125 0ZM228.75 0L228.75 16L243.875 16L243.875 0L228.75 0Z" clip-rule="evenodd"/>
	</clipPath>
	<g clip-path="url(#cl_21)">
		<path fill="#E15759" d="M10 4L231.85516 4L231.85516 20L10 20L10 4Z"/>
	</g>
</g>
<g class="bar" id="image-blit_napi">
    <clipPath id="cl_22">
		<path d="M10 16L25.125 16L25.125 0L10 0L10 16ZM25.625 0L25.625 16L40.75 16L40.75 0L25.625 0ZM41.25 0L41.25 16L56.375 16L56.375 0L41.25 0ZM56.875 0L56.875 16L72 16L72 0L56.875 0ZM72.5 0L72.5 16L87.625 16L87.625 0L72.5 0ZM88.125 0L88.125 16L103.25 16L103.25 0L88.125 0Z" clip-rule="evenodd"/>
	</clipPath>
	<g clip-path="url(#cl_22)">
		<path fill="#EDC949" d="M10 4L99.735046 4L99.735046 20L10 20L10 4Z"/>
	</g>
</g>
<g class="bar" id="image-blit_skia-sync">
    <clipPath id="cl_23">
		<path d="M10 16L25.125 16L25.125 0L10 0L10 16ZM25.625 0L25.625 16L40.75 16L40.75 0L25.625 0ZM41.25 0L41.25 16L56.375 16L56.375 0L41.25 0ZM56.875 0L56.875 16L72 16L72 0L56.875 0ZM72.5 0L72.5 16L87.625 16L87.625 0L72.5 0Z" clip-rule="evenodd"/>
	</clipPath>
	<g clip-path="url(#cl_23)">
		<path fill="#4E79A7" d="M10 4L87.784569 4L87.784569 20L10 20L10 4Z"/>
	</g>
</g>
<g class="bar" id="image-blit_skia-async">
    <clipPath id="cl_24">
		<rect x="10" width="15.125" height="16"/>
	</clipPath>
	<g clip-path="url(#cl_24)">
		<path fill="#76B7B2" d="M10 4L24.854851 4L24.854851 20L10 20L10 4Z"/>
	</g>
</g>
<g class="bar" id="image-rw_canvas">
    <clipPath id="cl_25">
		<path d="M10 16L25.125 16L25.125 0L10 0L10 16ZM25.625 0L25.625 16L40.75 16L40.75 0L25.625 0ZM41.25 0L41.25 16L56.375 16L56.375 0L41.25 0ZM56.875 0L56.875 16L72 16L72 0L56.875 0ZM72.5 0L72.5 16L87.625 16L87.625 0L72.5 0ZM88.125 0L88.125 16L103.25 16L103.25 0L88.125 0ZM103.75 0L103.75 16L118.875 16L118.875 0L103.75 0ZM119.375 0L119.375 16L134.5 16L134.5 0L119.375 0ZM135 0L135 16L150.125 16L150.125 0L135 0ZM150.625 0L150.625 16L165.75 16L165.75 0L150.625 0ZM166.25 0L166.25 16L181.375 16L181.375 0L166.25 0Z" clip-rule="evenodd"/>
	</clipPath>
	<g clip-path="url(#cl_25)">
		<path fill="#E15759" d="M10 4L167.87862 4L167.87862 20L10 20L10 4Z"/>
	</g>
</g>
<g class="bar" id="image-rw_napi">
    <clipPath id="cl_26">
		<path d="M10 16L25.125 16L25.125 0L10 0L10 16ZM25.625 0L25.625 16L40.75 16L40.75 0L25.625 0ZM41.25 0L41.25 16L56.375 16L56.375 0L41.25 0ZM56.875 0L56.875 16L72 16L72 0L56.875 0ZM72.5 0L72.5 16L87.625 16L87.625 0L72.5 0ZM88.125 0L88.125 16L103.25 16L103.25 0L88.125 0ZM103.75 0L103.75 16L118.875 16L118.875 0L103.75 0Z" clip-rule="evenodd"/>
	</clipPath>
	<g clip-path="url(#cl_26)">
		<path fill="#EDC949" d="M10 4L108.18286 4L108.18286 20L10 20L10 4Z"/>
	</g>
</g>
<g class="bar" id="image-rw_skia-sync">
    <clipPath id="cl_27">
		<path d="M10 16L25.125 16L25.125 0L10 0L10 16ZM25.625 0L25.625 16L40.75 16L40.75 0L25.625 0ZM41.25 0L41.25 16L56.375 16L56.375 0L41.25 0ZM56.875 0L56.875 16L72 16L72 0L56.875 0ZM72.5 0L72.5 16L87.625 16L87.625 0L72.5 0ZM88.125 0L88.125 16L103.25 16L103.25 0L88.125 0ZM103.75 0L103.75 16L118.875 16L118.875 0L103.75 0ZM119.375 0L119.375 16L134.5 16L134.5 0L119.375 0ZM135 0L135 16L150.125 16L150.125 0L135 0ZM150.625 0L150.625 16L165.75 16L165.75 0L150.625 0Z" clip-rule="evenodd"/>
	</clipPath>
	<g clip-path="url(#cl_27)">
		<path fill="#4E79A7" d="M10 4L164.56956 4L164.56956 20L10 20L10 4Z"/>
	</g>
</g>
<g class="bar" id="image-rw_skia-async">
    <clipPath id="cl_28">
		<path d="M10 16L25.125 16L25.125 0L10 0L10 16ZM25.625 0L25.625 16L40.75 16L40.75 0L25.625 0ZM41.25 0L41.25 16L56.375 16L56.375 0L41.25 0ZM56.875 0L56.875 16L72 16L72 0L56.875 0ZM72.5 0L72.5 16L87.625 16L87.625 0L72.5 0ZM88.125 0L88.125 16L103.25 16L103.25 0L88.125 0ZM103.75 0L103.75 16L118.875 16L118.875 0L103.75 0ZM119.375 0L119.375 16L134.5 16L134.5 0L119.375 0ZM135 0L135 16L150.125 16L150.125 0L135 0Z" clip-rule="evenodd"/>
	</clipPath>
	<g clip-path="url(#cl_28)">
		<path fill="#76B7B2" d="M10 4L141.01202 4L141.01202 20L10 20L10 4Z"/>
	</g>
</g>
<g class="bar" id="gradients_wasm">
    <clipPath id="cl_29">
		<path d="M10 16L25.125 16L25.125 0L10 0L10 16ZM25.625 0L25.625 16L40.75 16L40.75 0L25.625 0ZM41.25 0L41.25 16L56.375 16L56.375 0L41.25 0ZM56.875 0L56.875 16L72 16L72 0L56.875 0ZM72.5 0L72.5 16L87.625 16L87.625 0L72.5 0ZM88.125 0L88.125 16L103.25 16L103.25 0L88.125 0ZM103.75 0L103.75 16L118.875 16L118.875 0L103.75 0ZM119.375 0L119.375 16L134.5 16L134.5 0L119.375 0ZM135 0L135 16L150.125 16L150.125 0L135 0ZM150.625 0L150.625 16L165.75 16L165.75 0L150.625 0ZM166.25 0L166.25 16L181.375 16L181.375 0L166.25 0ZM181.875 0L181.875 16L197 16L197 0L181.875 0ZM197.5 0L197.5 16L212.625 16L212.625 0L197.5 0ZM213.125 0L213.125 16L228.25 16L228.25 0L213.125 0ZM228.75 0L228.75 16L243.875 16L243.875 0L228.75 0Z" clip-rule="evenodd"/>
	</clipPath>
	<g clip-path="url(#cl_29)">
		<path fill="#59A14F" d="M10 4L243.68993 4L243.68993 20L10 20L10 4Z"/>
	</g>
</g>
<g class="bar" id="gradients_canvas">
    <clipPath id="cl_2a">
		<path d="M10 16L25.125 16L25.125 0L10 0L10 16ZM25.625 0L25.625 16L40.75 16L40.75 0L25.625 0ZM41.25 0L41.25 16L56.375 16L56.375 0L41.25 0ZM56.875 0L56.875 16L72 16L72 0L56.875 0ZM72.5 0L72.5 16L87.625 16L87.625 0L72.5 0ZM88.125 0L88.125 16L103.25 16L103.25 0L88.125 0ZM103.75 0L103.75 16L118.875 16L118.875 0L103.75 0ZM119.375 0L119.375 16L134.5 16L134.5 0L119.375 0Z" clip-rule="evenodd"/>
	</clipPath>
	<g clip-path="url(#cl_2a)">
		<path fill="#E15759" d="M10 4L130.91101 4L130.91101 20L10 20L10 4Z"/>
	</g>
</g>
<g class="bar" id="gradients_napi">
    <clipPath id="cl_2b">
		<path d="M10 16L25.125 16L25.125 0L10 0L10 16ZM25.625 0L25.625 16L40.75 16L40.75 0L25.625 0ZM41.25 0L41.25 16L56.375 16L56.375 0L41.25 0ZM56.875 0L56.875 16L72 16L72 0L56.875 0ZM72.5 0L72.5 16L87.625 16L87.625 0L72.5 0ZM88.125 0L88.125 16L103.25 16L103.25 0L88.125 0ZM103.75 0L103.75 16L118.875 16L118.875 0L103.75 0Z" clip-rule="evenodd"/>
	</clipPath>
	<g clip-path="url(#cl_2b)">
		<path fill="#EDC949" d="M10 4L118.00726 4L118.00726 20L10 20L10 4Z"/>
	</g>
</g>
<g class="bar" id="gradients_skia-sync">
    <clipPath id="cl_2c">
		<path d="M10 16L25.125 16L25.125 0L10 0L10 16ZM25.625 0L25.625 16L40.75 16L40.75 0L25.625 0ZM41.25 0L41.25 16L56.375 16L56.375 0L41.25 0ZM56.875 0L56.875 16L72 16L72 0L56.875 0ZM72.5 0L72.5 16L87.625 16L87.625 0L72.5 0ZM88.125 0L88.125 16L103.25 16L103.25 0L88.125 0ZM103.75 0L103.75 16L118.875 16L118.875 0L103.75 0ZM119.375 0L119.375 16L134.5 16L134.5 0L119.375 0Z" clip-rule="evenodd"/>
	</clipPath>
	<g clip-path="url(#cl_2c)">
		<path fill="#4E79A7" d="M10 4L127.76953 4L127.76953 20L10 20L10 4Z"/>
	</g>
</g>
<g class="bar" id="gradients_skia-async">
    <clipPath id="cl_2d">
		<path d="M10 16L25.125 16L25.125 0L10 0L10 16ZM25.625 0L25.625 16L40.75 16L40.75 0L25.625 0Z" clip-rule="evenodd"/>
	</clipPath>
	<g clip-path="url(#cl_2d)">
		<path fill="#76B7B2" d="M10 4L30.897379 4L30.897379 20L10 20L10 4Z"/>
	</g>
</g>
<g class="bar" id="text_wasm">
    <clipPath id="cl_2e">
		<path d="M10 16L25.125 16L25.125 0L10 0L10 16ZM25.625 0L25.625 16L40.75 16L40.75 0L25.625 0ZM41.25 0L41.25 16L56.375 16L56.375 0L41.25 0ZM56.875 0L56.875 16L72 16L72 0L56.875 0ZM72.5 0L72.5 16L87.625 16L87.625 0L72.5 0Z" clip-rule="evenodd"/>
	</clipPath>
	<g clip-path="url(#cl_2e)">
		<path fill="#59A14F" d="M10 4L83.897385 4L83.897385 20L10 20L10 4Z"/>
	</g>
</g>
<g class="bar" id="text_canvas">
    <clipPath id="cl_2f">
		<path d="M10 16L25.125 16L25.125 0L10 0L10 16ZM25.625 0L25.625 16L40.75 16L40.75 0L25.625 0ZM41.25 0L41.25 16L56.375 16L56.375 0L41.25 0ZM56.875 0L56.875 16L72 16L72 0L56.875 0ZM72.5 0L72.5 16L87.625 16L87.625 0L72.5 0Z" clip-rule="evenodd"/>
	</clipPath>
	<g clip-path="url(#cl_2f)">
		<path fill="#E15759" d="M10 4L85.82695 4L85.82695 20L10 20L10 4Z"/>
	</g>
</g>
<g class="bar" id="text_napi">
    <clipPath id="cl_30">
		<path d="M10 16L25.125 16L25.125 0L10 0L10 16ZM25.625 0L25.625 16L40.75 16L40.75 0L25.625 0ZM41.25 0L41.25 16L56.375 16L56.375 0L41.25 0ZM56.875 0L56.875 16L72 16L72 0L56.875 0Z" clip-rule="evenodd"/>
	</clipPath>
	<g clip-path="url(#cl_30)">
		<path fill="#EDC949" d="M10 4L70.029312 4L70.029312 20L10 20L10 4Z"/>
	</g>
</g>
<g class="bar" id="text_skia-sync">
    <clipPath id="cl_31">
		<path d="M10 16L25.125 16L25.125 0L10 0L10 16ZM25.625 0L25.625 16L40.75 16L40.75 0L25.625 0ZM41.25 0L41.25 16L56.375 16L56.375 0L41.25 0ZM56.875 0L56.875 16L72 16L72 0L56.875 0ZM72.5 0L72.5 16L87.625 16L87.625 0L72.5 0Z" clip-rule="evenodd"/>
	</clipPath>
	<g clip-path="url(#cl_31)">
		<path fill="#4E79A7" d="M10 4L76.600479 4L76.600479 20L10 20L10 4Z"/>
	</g>
</g>
<g class="bar" id="text_skia-async">
    <clipPath id="cl_32">
		<rect x="10" width="15.125" height="16"/>
	</clipPath>
	<g clip-path="url(#cl_32)">
		<path fill="#76B7B2" d="M10 4L22.698307 4L22.698307 20L10 20L10 4Z"/>
	</g>
</g>
      </svg>