<?xml version="1.0" encoding="utf-8" ?>
<svg xmlns="http://www.w3.org/2000/svg" xmlns:xlink="http://www.w3.org/1999/xlink" width="260" height="16">
	<clipPath id="cl_21">
		<path d="M10 0L26.166666 0L26.166666 16L10 16L10 0ZM26.666666 0L42.833332 0L42.833332 16L26.666666 16L26.666666 0ZM43.333332 0L59.5 0L59.5 16L43.333332 16L43.333332 0ZM60 0L76.166664 0L76.166664 16L60 16L60 0ZM76.666664 0L92.833328 0L92.833328 16L76.666664 16L76.666664 0ZM93.333336 0L109.5 0L109.5 16L93.333336 16L93.333336 0ZM110 0L126.16666 0L126.16666 16L110 16L110 0ZM126.66666 0L142.83333 0L142.83333 16L126.66666 16L126.66666 0ZM143.33333 0L159.5 0L159.5 16L143.33333 16L143.33333 0ZM160 0L176.16667 0L176.16667 16L160 16L160 0ZM176.66667 0L192.83334 0L192.83334 16L176.66667 16L176.66667 0ZM193.33333 0L209.5 0L209.5 16L193.33333 16L193.33333 0ZM210 0L226.16667 0L226.16667 16L210 16L210 0Z"/>
	</clipPath>
	<g clip-path="url(#cl_21)">
		<path fill="#E15759" d="M10 4L215.36276 4L215.36276 20L10 20L10 4Z"/>
	</g>
</svg>
