<?xml version="1.0" encoding="utf-8" ?>
<svg xmlns="http://www.w3.org/2000/svg" xmlns:xlink="http://www.w3.org/1999/xlink" width="260" height="16">
	<clipPath id="cl_21">
		<path d="M10 0L25.5 0L25.5 16L10 16L10 0ZM26 0L42.5 0L42.5 16L26 16L26 0ZM43 0L59.5 0L59.5 16L43 16L43 0ZM60 0L75.5 0L75.5 16L60 16L60 0ZM76 0L92.5 0L92.5 16L76 16L76 0ZM93 0L109.5 0L109.5 16L93 16L93 0ZM110 0L125.5 0L125.5 16L110 16L110 0Z"/>
	</clipPath>
	<g clip-path="url(#cl_21)">
		<path fill="#E15759" d="M10 4L124.50454 4L124.50454 20L10 20L10 4Z"/>
	</g>
</svg>
