<?xml version="1.0" encoding="utf-8" ?>
<svg xmlns="http://www.w3.org/2000/svg" xmlns:xlink="http://www.w3.org/1999/xlink" width="260" height="16">
	<clipPath id="cl_10">
		<path d="M10 16L25.125 16L25.125 0L10 0L10 16ZM25.625 0L25.625 16L40.75 16L40.75 0L25.625 0ZM41.25 0L41.25 16L56.375 16L56.375 0L41.25 0ZM56.875 0L56.875 16L72 16L72 0L56.875 0ZM72.5 0L72.5 16L87.625 16L87.625 0L72.5 0ZM88.125 0L88.125 16L103.25 16L103.25 0L88.125 0ZM103.75 0L103.75 16L118.875 16L118.875 0L103.75 0ZM119.375 0L119.375 16L134.5 16L134.5 0L119.375 0ZM135 0L135 16L150.125 16L150.125 0L135 0ZM150.625 0L150.625 16L165.75 16L165.75 0L150.625 0ZM166.25 0L166.25 16L181.375 16L181.375 0L166.25 0ZM181.875 0L181.875 16L197 16L197 0L181.875 0ZM197.5 0L197.5 16L212.625 16L212.625 0L197.5 0ZM213.125 0L213.125 16L228.25 16L228.25 0L213.125 0ZM228.75 0L228.75 16L243.875 16L243.875 0L228.75 0ZM244.375 0L244.375 16L259.5 16L259.5 0L244.375 0Z" clip-rule="evenodd"/>
	</clipPath>
	<g clip-path="url(#cl_10)">
		<path fill="#59A14F" d="M10 4L254.56508 4L254.56508 20L10 20L10 4Z"/>
	</g>
</svg>
