<?xml version="1.0" encoding="utf-8" ?>
<svg xmlns="http://www.w3.org/2000/svg" xmlns:xlink="http://www.w3.org/1999/xlink" width="260" height="16">
	<clipPath id="cl_2c">
		<path d="M10 16L25.125 16L25.125 0L10 0L10 16ZM25.625 0L25.625 16L40.75 16L40.75 0L25.625 0ZM41.25 0L41.25 16L56.375 16L56.375 0L41.25 0ZM56.875 0L56.875 16L72 16L72 0L56.875 0ZM72.5 0L72.5 16L87.625 16L87.625 0L72.5 0ZM88.125 0L88.125 16L103.25 16L103.25 0L88.125 0ZM103.75 0L103.75 16L118.875 16L118.875 0L103.75 0ZM119.375 0L119.375 16L134.5 16L134.5 0L119.375 0Z" clip-rule="evenodd"/>
	</clipPath>
	<g clip-path="url(#cl_2c)">
		<path fill="#4E79A7" d="M10 4L128.52155 4L128.52155 20L10 20L10 4Z"/>
	</g>
</svg>
